<svg width="22" height="22" viewBox="0 0 22 22" fill="none" xmlns="http://www.w3.org/2000/svg">
<path d="M2.75 2.75L19.25 19.25" stroke="#242221" stroke-width="1.5" stroke-linecap="round" stroke-linejoin="round"/>
<path d="M2.75 2.75L19.25 19.25" stroke="white" stroke-opacity="0.2" stroke-width="1.5" stroke-linecap="round" stroke-linejoin="round"/>
<path d="M9.7016 9.70483C8.98524 10.4207 8.98483 11.5817 9.70068 12.2981C10.4165 13.0144 11.5776 13.0149 12.2939 12.299" stroke="#242221" stroke-width="1.5" stroke-linecap="round" stroke-linejoin="round"/>
<path d="M9.7016 9.70483C8.98524 10.4207 8.98483 11.5817 9.70068 12.2981C10.4165 13.0144 11.5776 13.0149 12.2939 12.299" stroke="white" stroke-opacity="0.2" stroke-width="1.5" stroke-linecap="round" stroke-linejoin="round"/>
<path d="M8.37716 4.19681C7.97892 4.31074 7.74844 4.72593 7.86236 5.12416C7.97628 5.5224 8.39147 5.75289 8.78971 5.63897L8.37716 4.19681ZM11.0007 4.58331L10.998 5.33331H11.0007V4.58331ZM20.1674 11L20.8185 11.3722C20.9503 11.1416 20.9503 10.8585 20.8185 10.6279L20.1674 11ZM17.3222 13.6882C17.041 13.9924 17.0597 14.4669 17.3639 14.7481C17.6681 15.0292 18.1426 15.0106 18.4237 14.7064L17.3222 13.6882ZM16.3306 16.525C16.674 16.2934 16.7646 15.8273 16.533 15.4839C16.3014 15.1404 15.8353 15.0498 15.4919 15.2814L16.3306 16.525ZM1.83398 11L1.18285 10.6278C1.05104 10.8584 1.05103 11.1415 1.18281 11.3721L1.83398 11ZM6.501 6.72474C6.84379 6.49222 6.93319 6.02584 6.70067 5.68304C6.46815 5.34025 6.00177 5.25085 5.65897 5.48337L6.501 6.72474ZM8.78971 5.63897C9.50774 5.43356 10.2512 5.33066 10.998 5.3333L11.0033 3.83331C10.1152 3.83016 9.23106 3.95254 8.37716 4.19681L8.78971 5.63897ZM11.0007 5.33331C14.3073 5.33331 17.1528 7.23632 19.5162 11.3721L20.8185 10.6279C18.2924 6.20746 15.0274 3.83331 11.0007 3.83331V5.33331ZM19.5162 10.6278C18.8258 11.8355 18.0937 12.8535 17.3222 13.6882L18.4237 14.7064C19.2857 13.7737 20.0825 12.6596 20.8185 11.3722L19.5162 10.6278ZM15.4919 15.2814C14.1186 16.2076 12.6288 16.6666 11.0007 16.6666V18.1666C12.9328 18.1666 14.7137 17.6155 16.3306 16.525L15.4919 15.2814ZM11.0007 16.6666C7.69399 16.6666 4.84858 14.7636 2.48516 10.6279L1.18281 11.3721C3.70889 15.7925 6.97398 18.1666 11.0007 18.1666V16.6666ZM2.48512 11.3722C3.70104 9.24497 5.04563 7.71192 6.501 6.72474L5.65897 5.48337C3.96284 6.63386 2.47676 8.36414 1.18285 10.6278L2.48512 11.3722Z" fill="#242221"/>
<path d="M8.37716 4.19681C7.97892 4.31074 7.74844 4.72593 7.86236 5.12416C7.97628 5.5224 8.39147 5.75289 8.78971 5.63897L8.37716 4.19681ZM11.0007 4.58331L10.998 5.33331H11.0007V4.58331ZM20.1674 11L20.8185 11.3722C20.9503 11.1416 20.9503 10.8585 20.8185 10.6279L20.1674 11ZM17.3222 13.6882C17.041 13.9924 17.0597 14.4669 17.3639 14.7481C17.6681 15.0292 18.1426 15.0106 18.4237 14.7064L17.3222 13.6882ZM16.3306 16.525C16.674 16.2934 16.7646 15.8273 16.533 15.4839C16.3014 15.1404 15.8353 15.0498 15.4919 15.2814L16.3306 16.525ZM1.83398 11L1.18285 10.6278C1.05104 10.8584 1.05103 11.1415 1.18281 11.3721L1.83398 11ZM6.501 6.72474C6.84379 6.49222 6.93319 6.02584 6.70067 5.68304C6.46815 5.34025 6.00177 5.25085 5.65897 5.48337L6.501 6.72474ZM8.78971 5.63897C9.50774 5.43356 10.2512 5.33066 10.998 5.3333L11.0033 3.83331C10.1152 3.83016 9.23106 3.95254 8.37716 4.19681L8.78971 5.63897ZM11.0007 5.33331C14.3073 5.33331 17.1528 7.23632 19.5162 11.3721L20.8185 10.6279C18.2924 6.20746 15.0274 3.83331 11.0007 3.83331V5.33331ZM19.5162 10.6278C18.8258 11.8355 18.0937 12.8535 17.3222 13.6882L18.4237 14.7064C19.2857 13.7737 20.0825 12.6596 20.8185 11.3722L19.5162 10.6278ZM15.4919 15.2814C14.1186 16.2076 12.6288 16.6666 11.0007 16.6666V18.1666C12.9328 18.1666 14.7137 17.6155 16.3306 16.525L15.4919 15.2814ZM11.0007 16.6666C7.69399 16.6666 4.84858 14.7636 2.48516 10.6279L1.18281 11.3721C3.70889 15.7925 6.97398 18.1666 11.0007 18.1666V16.6666ZM2.48512 11.3722C3.70104 9.24497 5.04563 7.71192 6.501 6.72474L5.65897 5.48337C3.96284 6.63386 2.47676 8.36414 1.18285 10.6278L2.48512 11.3722Z" fill="white" fill-opacity="0.2"/>
</svg>
