<svg width="23" height="22" viewBox="0 0 23 22" fill="none" xmlns="http://www.w3.org/2000/svg">
<path d="M8.84896 6.41699H6.09896C5.08644 6.41699 4.26562 7.2378 4.26562 8.25033V16.5003C4.26562 17.5128 5.08644 18.3337 6.09896 18.3337H14.349C15.3615 18.3337 16.1823 17.5128 16.1823 16.5003V13.7503" stroke="#242221" stroke-width="1.5" stroke-linecap="round" stroke-linejoin="round"/>
<path d="M8.84896 6.41699H6.09896C5.08644 6.41699 4.26562 7.2378 4.26562 8.25033V16.5003C4.26562 17.5128 5.08644 18.3337 6.09896 18.3337H14.349C15.3615 18.3337 16.1823 17.5128 16.1823 16.5003V13.7503" stroke="white" stroke-opacity="0.2" stroke-width="1.5" stroke-linecap="round" stroke-linejoin="round"/>
<path d="M8.84961 13.7499H11.5996L19.3913 5.95822C20.1507 5.19882 20.1507 3.96761 19.3913 3.20822C18.6319 2.44882 17.4007 2.44882 16.6413 3.20822L8.84961 10.9999V13.7499" stroke="#242221" stroke-width="1.5" stroke-linecap="round" stroke-linejoin="round"/>
<path d="M8.84961 13.7499H11.5996L19.3913 5.95822C20.1507 5.19882 20.1507 3.96761 19.3913 3.20822C18.6319 2.44882 17.4007 2.44882 16.6413 3.20822L8.84961 10.9999V13.7499" stroke="white" stroke-opacity="0.2" stroke-width="1.5" stroke-linecap="round" stroke-linejoin="round"/>
<path d="M15.2656 4.58301L18.0156 7.33301" stroke="#242221" stroke-width="1.5" stroke-linecap="round" stroke-linejoin="round"/>
<path d="M15.2656 4.58301L18.0156 7.33301" stroke="white" stroke-opacity="0.2" stroke-width="1.5" stroke-linecap="round" stroke-linejoin="round"/>
</svg>
