<svg width="16" height="16" viewBox="0 0 16 16" fill="none" xmlns="http://www.w3.org/2000/svg">
<path d="M2.04165 1.58337H13.9583C14.2259 1.6772 14.4349 1.88955 14.5246 2.15851C14.6142 2.42747 14.5744 2.72279 14.4166 2.95837L9.83332 8.00004V14.4167L6.16665 11.6667V8.00004L1.58331 2.95837C1.42558 2.72279 1.38573 2.42747 1.47539 2.15851C1.56504 1.88955 1.77411 1.6772 2.04165 1.58337" stroke="#1E1C1B" stroke-width="1.5" stroke-linecap="round" stroke-linejoin="round"/>
<path d="M2.04165 1.58337H13.9583C14.2259 1.6772 14.4349 1.88955 14.5246 2.15851C14.6142 2.42747 14.5744 2.72279 14.4166 2.95837L9.83332 8.00004V14.4167L6.16665 11.6667V8.00004L1.58331 2.95837C1.42558 2.72279 1.38573 2.42747 1.47539 2.15851C1.56504 1.88955 1.77411 1.6772 2.04165 1.58337" stroke="white" stroke-opacity="0.5" stroke-width="1.5" stroke-linecap="round" stroke-linejoin="round"/>
</svg>
